<svg id="レイヤー_1" data-name="レイヤー 1" xmlns="http://www.w3.org/2000/svg" viewBox="0 0 505.5 503"><defs><style>.cls-1{fill:#040000;}</style></defs><title>w-ax8</title><path d="M123.67,508a21,21,0,0,1-16.81-8.12c-4.7-6-6.38-14.32-4.6-22.93L194.15,32.47C197.34,17.06,210.49,5,224.09,5H429.7a18.06,18.06,0,0,1,15.48,8.52L507.47,111a23.72,23.72,0,0,1,2.81,17.67L437.52,480.54c-3.18,15.4-16.33,27.46-29.93,27.46Zm283.81-34,69.14-334.44h-85L412.41,39.08H224.18L134.27,474ZM463.8,105.51,438.28,65.59,430,105.51Z" transform="translate(-5.36 -5)"/><path d="M47.41,42.08c-6.43,0-11.66-6.52-11.66-14.52S41,13.08,47.41,13.08H150.87c6.43,0,11.66,6.49,11.66,14.48s-5.23,14.52-11.66,14.52Z" transform="translate(-5.36 -5)"/><path d="M32.64,124.08c-6.42,0-11.65-6.52-11.65-14.52s5.23-14.48,11.65-14.48H136.11c6.43,0,11.66,6.49,11.66,14.48s-5.23,14.52-11.66,14.52Z" transform="translate(-5.36 -5)"/><path d="M17,206.08c-6.42,0-11.65-6.52-11.65-14.52S10.59,177.08,17,177.08H120.48c6.43,0,11.66,6.49,11.66,14.48s-5.23,14.52-11.66,14.52Z" transform="translate(-5.36 -5)"/><path class="cls-1" d="M400.77,283.13a125.34,125.34,0,0,1-37.16,42.49,118,118,0,0,1-24.55,14.06A42.32,42.32,0,0,1,348,357.86a51.17,51.17,0,0,1-.08,22.47q-5,23.55-25.55,40.05t-44.6,16.5q-23.74,0-37.27-16.5T232,380.33a65.45,65.45,0,0,1,9.46-22.47,75.74,75.74,0,0,1,16.68-18.18,70.73,70.73,0,0,1-18.89-14.06,74.1,74.1,0,0,1-12.78-19.26,69.61,69.61,0,0,1-6-23.23,85.08,85.08,0,0,1,1.59-26.6,104,104,0,0,1,15.1-35.76,126.9,126.9,0,0,1,60.4-48.91,103.77,103.77,0,0,1,38.12-7.33q19.69,0,35.32,7.33a73.76,73.76,0,0,1,25.49,19.72,70.46,70.46,0,0,1,14.11,29.19q3.62,16.81-.41,35.76A109.56,109.56,0,0,1,400.77,283.13ZM287.52,391a26.4,26.4,0,0,0,16.77-6.11,25.62,25.62,0,0,0,9.59-15q1.88-8.87-3.19-15.13t-14.14-6.27q-8.76,0-16.49,6.27a26.12,26.12,0,0,0-9.62,15.13q-1.89,8.87,3.22,15T287.52,391Zm45.86-95.22q12.8-10.23,15.92-24.91T344,245.84q-8.42-10.4-23.41-10.4t-27.68,10.4q-12.68,10.4-15.8,25.06t5.18,24.91q8.28,10.24,23.29,10.24T333.38,295.81Z" transform="translate(-5.36 -5)"/></svg>